<svg viewBox="0 0 64 64" fill="none" xmlns="http://www.w3.org/2000/svg">
<path
    fill-rule="evenodd"
    clip-rule="evenodd"
    d="M32 64C49.6731 64 64 49.6731 64 32C64 14.3269 49.6731 0 32 0C14.3269 0 0 14.3269 0 32C0 49.6731 14.3269 64 32 64Z"
    fill="white"
  />
<path
    fill-rule="evenodd"
    clip-rule="evenodd"
    d="M36 46H28V30C28 28.0047 27.8816 26.5295 27.2138 25.5318C26.5459 24.5342 25.4947 24.0353 24.0601 24.0353C22.1307 24.0353 20.7291 24.7444 19.8551 26.1625C18.9811 27.5807 19 28.7515 19 32V46H11V19H17L17.5 22H18.5C19.2421 20.7303 19.5983 19.7173 21 19C22.4017 18.2827 23 18 26.2367 18C30.3758 18 33.0324 19.2956 34.5 22H35.5C36.2421 20.7138 37.149 19.7727 38.5919 19.0636C40.0348 18.3545 40 18 43.477 18C46.6101 18 48.3922 18.3922 50 20C51.6078 21.6078 53 23.9546 53 27.5V46H45V30C45 28.0047 45.0972 26.5295 44.4293 25.5318C43.7615 24.5342 42.7103 24.0353 41.2756 24.0353C39.4287 24.0353 38.0477 24.6949 37.1325 26.0141C36.2173 27.3333 36 29.1307 36 32V46Z"
    fill="#555555"
  />
</svg>
